{
  "accessors": [
    {
      "bufferView": 2,
      "componentType": 5126,
      "count": 1469,
      "max": [
        2.5898194313049316,
        2.307478666305542,
        2.066420793533325
      ],
      "min": [
        -6.882899761199951,
        -6.078766822814941,
        -2.066420793533325
      ],
      "type": "VEC3"
    },
    {
      "bufferView": 2,
      "byteOffset": 17628,
      "componentType": 5126,
      "count": 1469,
      "max": [
        0.9735268354415894,
        0.9645944237709045,
        0.9905945658683777
      ],
      "min": [
        -0.9909058213233948,
        -0.9865896105766296,
        -1.0
      ],
      "type": "VEC3"
    },
    {
      "bufferView": 1,
      "componentType": 5126,
      "count": 1469,
      "max": [
        1.0000001192092896,
        1.0000001192092896
      ],
      "min": [
        0.0,
        0.0
      ],
      "type": "VEC2"
    },
    {
      "bufferView": 0,
      "componentType": 5125,
      "count": 2244,
      "type": "SCALAR"
    },
    {
      "bufferView": 2,
      "byteOffset": 35256,
      "componentType": 5126,
      "count": 670,
      "max": [
        4.704573631286621,
        2.7384657859802246,
        1.4442532062530518
      ],
      "min": [
        -6.56586217880249,
        -1.8759925365447998,
        -1.605441689491272
      ],
      "type": "VEC3"
    },
    {
      "bufferView": 2,
      "byteOffset": 43296,
      "componentType": 5126,
      "count": 670,
      "max": [
        0.9997499585151672,
        0.9976633191108704,
        0.9998986721038818
      ],
      "min": [
        -0.9863651394844055,
        -0.9992619752883911,
        -1.0
      ],
      "type": "VEC3"
    },
    {
      "bufferView": 1,
      "byteOffset": 11752,
      "componentType": 5126,
      "count": 670,
      "max": [
        1.0000001192092896,
        1.0000001192092896
      ],
      "min": [
        0.0,
        0.0
      ],
      "type": "VEC2"
    },
    {
      "bufferView": 0,
      "byteOffset": 8976,
      "componentType": 5125,
      "count": 1002,
      "type": "SCALAR"
    },
    {
      "bufferView": 2,
      "byteOffset": 51336,
      "componentType": 5126,
      "count": 32,
      "max": [
        -6.433974742889404,
        1.3726640939712524,
        0.506034255027771
      ],
      "min": [
        -6.650757312774658,
        1.1809762716293335,
        -0.506034255027771
      ],
      "type": "VEC3"
    },
    {
      "bufferView": 2,
      "byteOffset": 51720,
      "componentType": 5126,
      "count": 32,
      "max": [
        -0.18848934769630432,
        0.18656480312347412,
        0.9795740842819214
      ],
      "min": [
        -0.27338314056396484,
        -0.06637713313102722,
        -0.9795739054679871
      ],
      "type": "VEC3"
    },
    {
      "bufferView": 1,
      "byteOffset": 17112,
      "componentType": 5126,
      "count": 32,
      "max": [
        0.4191381633281708,
        1.0
      ],
      "min": [
        0.08088214695453644,
        0.9999999403953552
      ],
      "type": "VEC2"
    },
    {
      "bufferView": 0,
      "byteOffset": 12984,
      "componentType": 5125,
      "count": 48,
      "type": "SCALAR"
    }
  ],
  "asset": {
    "extras": {
      "author": "Atlas (https://sketchfab.com/Atlasmodels)",
      "license": "CC-BY-4.0 (http://creativecommons.org/licenses/by/4.0/)",
      "source": "https://sketchfab.com/3d-models/goose-low-poly-3318893e41fc4d2f9f497776da95c13a",
      "title": "Goose Low Poly"
    },
    "generator": "Sketchfab-12.68.0",
    "version": "2.0"
  },
  "bufferViews": [
    {
      "buffer": 0,
      "byteLength": 13176,
      "name": "floatBufferViews",
      "target": 34963
    },
    {
      "buffer": 0,
      "byteLength": 17368,
      "byteOffset": 13176,
      "byteStride": 8,
      "name": "floatBufferViews",
      "target": 34962
    },
    {
      "buffer": 0,
      "byteLength": 52104,
      "byteOffset": 30544,
      "byteStride": 12,
      "name": "floatBufferViews",
      "target": 34962
    }
  ],
  "buffers": [
    {
      "byteLength": 82648,
      "uri": "scene.bin"
    }
  ],
  "materials": [
    {
      "doubleSided": true,
      "name": "Material.001",
      "pbrMetallicRoughness": {
        "baseColorFactor": [
          0.8,
          0.8,
          0.8,
          1.0
        ],
        "metallicFactor": 0.0,
        "roughnessFactor": 0.8211145618000169
      }
    },
    {
      "doubleSided": true,
      "name": "Material.002",
      "pbrMetallicRoughness": {
        "baseColorFactor": [
          0.8,
          0.160281,
          0.013858,
          1.0
        ],
        "metallicFactor": 0.0,
        "roughnessFactor": 0.9361125149872536
      }
    },
    {
      "doubleSided": true,
      "name": "Material.003",
      "pbrMetallicRoughness": {
        "baseColorFactor": [
          0.00273198,
          0.0035402,
          0.00637025,
          1.0
        ],
        "metallicFactor": 0.0,
        "roughnessFactor": 0.999201119537968
      }
    }
  ],
  "meshes": [
    {
      "name": "Plane_Material.001_0",
      "primitives": [
        {
          "attributes": {
            "NORMAL": 1,
            "POSITION": 0,
            "TEXCOORD_0": 2
          },
          "indices": 3,
          "material": 0,
          "mode": 4
        }
      ]
    },
    {
      "name": "Plane_Material.002_0",
      "primitives": [
        {
          "attributes": {
            "NORMAL": 5,
            "POSITION": 4,
            "TEXCOORD_0": 6
          },
          "indices": 7,
          "material": 1,
          "mode": 4
        }
      ]
    },
    {
      "name": "Plane_Material.003_0",
      "primitives": [
        {
          "attributes": {
            "NORMAL": 9,
            "POSITION": 8,
            "TEXCOORD_0": 10
          },
          "indices": 11,
          "material": 2,
          "mode": 4
        }
      ]
    }
  ],
  "nodes": [
    {
      "children": [
        1
      ],
      "matrix": [
        -0.7068867683410645,
        0.046297065913677375,
        -0.7058099508285522,
        0.0,
        -0.706567645072937,
        -1.4881548320090404e-17,
        0.7076455354690552,
        0.0,
        0.032761912792921066,
        0.9989277124404907,
        0.03271200880408309,
        0.0,
        -51.056053161621094,
        0.2310569882392663,
        99.2821273803711,
        1.0
      ],
      "name": "Sketchfab_model"
    },
    {
      "children": [
        2
      ],
      "matrix": [
        1.0,
        0.0,
        0.0,
        0.0,
        0.0,
        0.0,
        1.0,
        0.0,
        0.0,
        -1.0,
        0.0,
        0.0,
        0.0,
        0.0,
        0.0,
        1.0
      ],
      "name": "c905bc928cc44d869497538ece048388.fbx"
    },
    {
      "children": [
        3
      ],
      "name": "RootNode"
    },
    {
      "children": [
        4,
        5,
        6
      ],
      "matrix": [
        -1.6296951237111977e-06,
        -37.283077239990135,
        2.222244310110872e-06,
        0.0,
        -6.074184381377916e-06,
        -2.222244045198675e-06,
        -37.28307723998967,
        0.0,
        37.2830772399897,
        -1.629695485895842e-06,
        -6.074184282035842e-06,
        0.0,
        0.0,
        174.9024658203125,
        0.0,
        1.0
      ],
      "name": "Plane"
    },
    {
      "mesh": 0,
      "name": "Plane_Material.001_0"
    },
    {
      "mesh": 1,
      "name": "Plane_Material.002_0"
    },
    {
      "mesh": 2,
      "name": "Plane_Material.003_0"
    }
  ],
  "scene": 0,
  "scenes": [
    {
      "name": "Sketchfab_Scene",
      "nodes": [
        0
      ]
    }
  ]
}
